<svg width="20" height="20" viewBox="0 0 20 20" fill="none" xmlns="http://www.w3.org/2000/svg">
<path fill-rule="evenodd" clip-rule="evenodd" d="M5.64553 4.37496H14.3539C15.0339 4.37496 15.5822 4.37496 16.0264 4.41163C16.4847 4.44913 16.8855 4.52829 17.2572 4.71829C17.8405 5.01746 18.3155 5.49246 18.6147 6.07579C18.8047 6.44746 18.8839 6.84913 18.9214 7.30663C18.958 7.75079 18.958 8.29913 18.958 8.97913V9.07829C18.9589 9.35996 18.9597 9.65996 18.8514 9.92829C18.7578 10.1586 18.6069 10.3611 18.413 10.5166C18.3245 10.587 18.2273 10.6458 18.1239 10.6916C18.1214 12.035 18.1047 13.3916 17.9839 14.555C17.913 15.2383 17.8047 15.8791 17.6322 16.425C17.463 16.9633 17.2122 17.4716 16.8164 17.8241C16.1305 18.4341 15.2664 18.7033 14.1889 18.8325C13.1305 18.9583 11.7739 18.9583 10.0422 18.9583H9.9572C8.22553 18.9583 6.86886 18.9583 5.81053 18.8316C4.7322 18.7033 3.86886 18.4341 3.18303 17.8241C2.78636 17.4725 2.53636 16.9633 2.36636 16.4258C2.1947 15.8791 2.08636 15.2383 2.01553 14.555C1.8947 13.3925 1.8772 12.035 1.8747 10.6908C1.77161 10.6452 1.67472 10.5866 1.58636 10.5166C1.3925 10.3611 1.24162 10.1586 1.14803 9.92829C1.0397 9.65996 1.0397 9.35996 1.04136 9.07829V8.97913C1.04136 8.29913 1.04136 7.75079 1.07803 7.30663C1.11553 6.84829 1.1947 6.44746 1.3847 6.07579C1.68355 5.49207 2.15847 5.01715 2.7422 4.71829C3.11303 4.52829 3.5147 4.44913 3.9722 4.41163C4.4172 4.37496 4.96553 4.37496 5.64553 4.37496ZM3.12636 11.0908C3.1322 12.2883 3.15636 13.4383 3.25886 14.4266C3.32553 15.0683 3.4222 15.6158 3.55886 16.05C3.69886 16.4916 3.8597 16.7541 4.01303 16.89C4.42553 17.2566 4.9947 17.4758 5.95886 17.59C6.93386 17.7066 8.21636 17.7083 9.9997 17.7083C11.783 17.7083 13.0647 17.7075 14.0405 17.5908C15.0047 17.4758 15.5739 17.2558 15.9864 16.89C16.1389 16.7541 16.3005 16.4916 16.4397 16.05C16.5764 15.6166 16.6739 15.0683 16.7405 14.4266C16.843 13.4383 16.8672 12.2875 16.873 11.0908L12.708 12.34V12.635C12.708 13.06 12.4489 13.4433 12.053 13.6016L11.4697 13.835C10.526 14.2124 9.47335 14.2124 8.5297 13.835L7.94636 13.6016C7.75311 13.5244 7.58743 13.391 7.47068 13.2187C7.35393 13.0464 7.29148 12.8431 7.29136 12.635V12.34L3.12636 11.0908ZM7.29136 11.035L2.7972 9.68663C2.67656 9.65243 2.55705 9.61436 2.43886 9.57246C2.41479 9.56328 2.39115 9.55299 2.36803 9.54163C2.3412 9.51962 2.32029 9.49126 2.3072 9.45913C2.3027 9.43402 2.29937 9.40871 2.2972 9.38329C2.2912 9.25783 2.28925 9.13221 2.29136 9.00663C2.29136 8.29329 2.29136 7.79579 2.32386 7.40829C2.3547 7.02829 2.41303 6.81079 2.4972 6.64579C2.67634 6.29542 2.96117 6.01029 3.31136 5.83079C3.4772 5.74663 3.6947 5.68913 4.0747 5.65746C4.4622 5.62579 4.95886 5.62496 5.67303 5.62496H14.3264C15.0397 5.62496 15.5372 5.62496 15.9247 5.65746C16.3039 5.68829 16.5222 5.74663 16.6872 5.83079C17.0372 6.00996 17.3222 6.29496 17.5022 6.64579C17.5864 6.81079 17.6439 7.02913 17.6755 7.40829C17.7072 7.79579 17.708 8.29329 17.708 9.00663C17.708 9.19413 17.708 9.30246 17.7014 9.38329C17.6995 9.4087 17.6964 9.434 17.6922 9.45913C17.6789 9.49135 17.6577 9.51972 17.6305 9.54163C17.6077 9.55297 17.5843 9.56326 17.5605 9.57246C17.4423 9.61436 17.3228 9.65243 17.2022 9.68663L12.708 11.035V10.8333C12.708 10.2583 12.2414 9.79163 11.6664 9.79163H8.33303C7.75803 9.79163 7.29136 10.2583 7.29136 10.8333V11.035ZM8.54136 11.0416V12.4933L8.99386 12.6741C9.63955 12.9324 10.3598 12.9324 11.0055 12.6741L11.458 12.4933V11.0416H8.54136ZM9.9997 2.29163C9.61186 2.29151 9.23353 2.41166 8.91683 2.63553C8.60013 2.8594 8.36064 3.17597 8.23136 3.54163C8.17417 3.69532 8.05886 3.82037 7.91031 3.88982C7.76175 3.95927 7.59185 3.96755 7.43725 3.91288C7.28264 3.85821 7.15572 3.74497 7.08384 3.59758C7.01197 3.45018 7.0009 3.28044 7.05303 3.12496C7.26849 2.51551 7.6676 1.98785 8.19539 1.61463C8.72318 1.24142 9.3537 1.04102 10.0001 1.04102C10.6465 1.04102 11.277 1.24142 11.8048 1.61463C12.3326 1.98785 12.7317 2.51551 12.9472 3.12496C13.0024 3.28133 12.9933 3.45324 12.9218 3.60288C12.8503 3.75252 12.7223 3.86762 12.5659 3.92288C12.4096 3.97813 12.2377 3.969 12.088 3.89751C11.9384 3.82601 11.8233 3.69799 11.768 3.54163C11.6387 3.17597 11.3993 2.8594 11.0826 2.63553C10.7659 2.41166 10.3875 2.29151 9.9997 2.29163Z" fill="#8E7F61"/>
</svg>
