<svg width="304" height="304" viewBox="0 0 304 304" fill="none" xmlns="http://www.w3.org/2000/svg">
<path d="M88.5757 236.667C82.7818 236.667 78.1732 235.049 74.9901 231.799C67.1726 223.818 68.8588 206.608 79.6163 184.579C100.612 141.587 149.878 91.7064 189.439 73.3869C207.502 65.0218 221.283 64.3297 228.244 71.4362C236.062 79.4166 234.376 96.6275 223.618 118.656C202.621 161.648 153.355 211.529 113.795 229.848C103.993 234.387 95.4505 236.667 88.5757 236.667ZM189.812 74.1933C150.41 92.44 101.334 142.134 80.4154 184.969C69.8324 206.639 68.0861 223.481 75.6247 231.177C82.3036 237.994 95.7266 237.236 113.422 229.042C152.824 210.796 201.899 161.102 222.819 118.266C233.402 96.5956 235.148 79.7536 227.609 72.0581C220.932 65.2416 207.509 65.9982 189.812 74.1933Z" fill="url(#paint0_linear_68_337)"/>
<path d="M84.416 237.827C77.6431 237.827 72.3827 235.881 68.9775 231.995C61.0101 222.904 63.9379 204.143 77.0104 180.522C101.672 135.962 155.096 86.6204 196.102 70.5316C214.114 63.4646 227.665 63.7165 234.258 71.2402C242.225 80.3315 239.297 99.0924 226.225 122.713C201.564 167.273 148.14 216.615 107.133 232.703C98.4242 236.121 90.7567 237.827 84.416 237.827ZM218.824 66.2869C212.608 66.2869 205.048 67.9761 196.427 71.3587C155.585 87.3832 102.364 136.547 77.7877 180.953C64.9077 204.226 61.9396 222.616 69.6455 231.409C75.9731 238.63 89.171 238.795 106.808 231.876C147.65 215.851 200.872 166.688 225.447 122.282C238.328 99.0096 241.295 80.6187 233.59 71.8261C230.355 68.1349 225.324 66.2869 218.824 66.2869Z" fill="url(#paint1_linear_68_337)"/>
<path d="M80.6058 238.71C72.6293 238.71 66.5785 236.359 62.9409 231.702C54.8746 221.374 59.1852 201.029 74.766 175.884C103.215 129.973 160.737 81.6079 202.99 68.0706C220.837 62.3531 234.085 63.5829 240.294 71.5338C248.361 81.8618 244.051 102.206 228.47 127.351C200.02 173.263 142.499 221.628 100.245 235.165C92.8523 237.533 86.2471 238.71 80.6058 238.71ZM222.641 65.4067C217.099 65.4067 210.582 66.5713 203.262 68.9166C161.179 82.399 103.876 130.594 75.521 176.353C60.1477 201.162 55.8175 221.137 63.6411 231.155C69.6052 238.791 82.5086 239.914 99.9738 234.319C142.056 220.836 199.36 172.641 227.714 126.883C243.088 102.073 247.418 82.0988 239.594 72.081C236.13 67.6454 230.323 65.4067 222.641 65.4067Z" fill="url(#paint2_linear_68_337)"/>
<path d="M77.0368 239.386C67.6628 239.386 60.8236 236.525 56.9145 230.87C48.8225 219.164 54.6609 197.215 72.9329 170.651C105.274 123.634 166.793 76.7136 210.068 66.0573C227.897 61.6674 240.433 63.8486 246.32 72.365C254.413 84.0713 248.574 106.02 230.302 132.584C197.96 179.601 136.442 226.522 93.1671 237.178C87.1753 238.653 81.7811 239.386 77.0368 239.386ZM226.206 64.7344C221.536 64.7344 216.212 65.4603 210.281 66.9205C167.186 77.5319 105.9 124.291 73.6649 171.155C55.613 197.397 49.7743 218.979 57.6454 230.365C63.3055 238.552 75.5152 240.61 92.9539 236.315C136.048 225.703 197.334 178.944 229.569 132.081C247.621 105.838 253.46 84.2565 245.589 72.8705C241.854 67.4677 235.266 64.7344 226.206 64.7344Z" fill="url(#paint3_linear_68_337)"/>
<path d="M74.2426 239.754C63.0234 239.754 55.0641 236.268 50.9337 229.447C42.9165 216.206 50.4352 192.647 71.5621 164.812C107.878 116.966 173.254 71.9873 217.297 64.5479C234.75 61.6002 246.855 64.7949 252.301 73.7884C260.318 87.0297 252.799 110.588 231.672 138.424C195.357 186.27 129.981 231.248 85.9377 238.688C81.721 239.4 77.8166 239.754 74.2426 239.754ZM228.999 64.3689C225.475 64.3689 221.618 64.719 217.445 65.4238C173.593 72.8313 108.468 117.657 72.27 165.349C51.6827 192.474 43.9902 216.264 51.6942 228.987C56.9354 237.643 68.7245 240.694 85.7901 237.812C129.642 230.404 194.767 185.578 230.965 137.886C251.552 110.761 259.245 86.9717 251.541 74.249C247.582 67.71 239.884 64.3689 228.999 64.3689Z" fill="url(#paint4_linear_68_337)"/>
<path d="M72.2433 239.927C58.6991 239.927 49.3555 235.641 45.0368 227.371C37.3467 212.645 46.9423 186.847 70.7052 158.36C111.052 109.992 180.104 67.4812 224.633 63.597C241.626 62.1138 253.233 66.3569 258.198 75.8642C265.888 90.5895 256.292 116.387 232.53 144.874C192.182 193.243 123.131 235.754 78.602 239.638C76.3905 239.831 74.2696 239.927 72.2433 239.927ZM224.71 64.4825C180.384 68.3486 111.604 110.717 71.3874 158.929C47.8626 187.131 38.3062 212.563 45.8245 226.959C50.6102 236.122 61.9184 240.202 78.5245 238.752C122.85 234.886 191.631 192.517 231.848 144.305C255.372 116.103 264.929 90.6719 257.41 76.2757C252.625 67.1119 241.316 63.0341 224.71 64.4825Z" fill="url(#paint5_linear_68_337)"/>
<path d="M71.2295 239.972C71.2214 239.972 71.2161 239.972 71.2076 239.972C54.746 239.967 43.7005 234.641 39.2649 224.569C31.9644 207.991 43.6077 180.598 70.4111 151.294C114.814 102.75 187.298 63.2629 232.004 63.2629C232.012 63.2629 232.017 63.2629 232.026 63.2629C248.487 63.2679 259.533 68.5939 263.968 78.6658C271.269 95.2444 259.625 122.637 232.822 151.941C188.42 200.486 115.936 239.97 71.2295 239.972ZM232.003 64.1518C187.514 64.1518 115.326 103.506 71.0673 151.894C44.5089 180.93 32.9242 207.964 40.079 224.211C44.3612 233.936 55.1256 239.078 71.208 239.083C71.2138 239.083 71.2245 239.083 71.2302 239.083C115.719 239.086 187.907 199.729 232.166 151.341C258.725 122.305 270.309 95.2704 263.155 79.024C258.872 69.2991 248.108 64.1564 232.026 64.1518C232.019 64.1518 232.009 64.1518 232.003 64.1518Z" fill="url(#paint6_linear_68_337)"/>
<path d="M71.2791 239.975C68.7037 239.975 66.2135 239.863 63.8103 239.633C47.935 238.119 37.513 231.66 33.6714 220.956C26.9929 202.35 40.8492 173.438 70.7357 143.616C119.211 95.2464 194.884 59.3578 239.424 63.6021C255.299 65.1168 265.721 71.5752 269.563 82.279C276.241 100.885 262.385 129.798 232.499 159.62C186.639 205.379 116.433 239.974 71.2791 239.975ZM231.921 64.1477C186.994 64.1477 117.074 98.6336 71.3635 144.245C41.7266 173.817 27.9489 202.382 34.5074 220.656C38.2247 231.013 48.3863 237.269 63.8946 238.749C108.197 242.976 183.558 207.197 231.87 158.99C261.507 129.418 275.285 100.853 268.727 82.5792C265.009 72.2225 254.848 65.9665 239.339 64.4867C236.954 64.2593 234.478 64.1477 231.921 64.1477Z" fill="url(#paint7_linear_68_337)"/>
<path d="M72.573 240.039C66.8213 240.039 61.4278 239.56 56.4665 238.565C41.2136 235.507 31.478 227.852 28.3132 216.427C22.5516 195.63 38.7812 165.314 71.7267 135.332C124.237 87.5462 202.763 55.8466 246.767 64.6698C262.02 67.7276 271.756 75.3829 274.921 86.8076C280.682 107.605 264.452 137.92 231.507 167.902C184.917 210.302 117.842 240.036 72.573 240.039ZM230.606 64.0785C185.57 64.0785 118.769 93.7243 72.3253 135.99C39.6329 165.741 23.5003 195.722 29.1699 216.19C32.2392 227.27 41.7389 234.706 56.6417 237.694C61.562 238.68 66.923 239.156 72.6278 239.156C117.664 239.159 184.465 209.51 230.909 167.245C263.601 137.494 279.734 107.512 274.064 87.0454C270.995 75.965 261.495 68.5291 246.593 65.5415C241.672 64.5552 236.311 64.0785 230.606 64.0785Z" fill="url(#paint8_linear_68_337)"/>
<path d="M75.3296 240.298C65.6746 240.299 56.8662 239.142 49.2409 236.712C34.6296 232.057 25.6491 223.115 23.27 210.854C18.785 187.736 37.539 156.186 73.4364 126.458C129.916 79.6843 210.915 52.7977 253.993 66.5236C268.605 71.1786 277.586 80.1203 279.964 92.3814C284.449 115.499 265.696 147.05 229.799 176.778C183.316 215.272 120.222 240.296 75.3296 240.298ZM227.843 63.8129C183.184 63.8129 120.34 88.7683 74.0032 127.142C38.36 156.66 19.7202 187.891 24.1424 210.685C26.4555 222.608 35.2278 231.315 49.5105 235.865C92.3373 249.509 172.958 222.695 229.231 176.093C264.874 146.575 283.514 115.344 279.092 92.5501C276.778 80.6276 268.007 71.9202 253.723 67.3695C246.161 64.961 237.419 63.8129 227.843 63.8129Z" fill="url(#paint9_linear_68_337)"/>
<path d="M79.73 240.917C65.3418 240.917 52.5117 238.701 42.2021 234.02C28.2391 227.68 20.0938 217.329 18.6466 204.085C15.8584 178.573 37.2664 146.021 75.9133 117.01C136.26 71.7089 219.304 50.2687 261.033 69.2156C274.996 75.5555 283.141 85.9069 284.589 99.1505C287.377 124.664 265.969 157.215 227.322 186.226C181.885 220.334 123.578 240.917 79.73 240.917ZM223.453 63.1871C179.83 63.1871 121.745 83.7154 76.4467 117.72C38.0537 146.541 16.7764 178.791 19.5301 203.988C20.9413 216.902 28.9083 227.008 42.5694 233.211C84.0333 252.038 166.674 230.641 226.789 185.515C265.182 156.694 286.459 124.445 283.705 99.2467C282.294 86.3326 274.327 76.2274 260.666 70.0243C250.446 65.3844 237.721 63.1871 223.453 63.1871Z" fill="url(#paint10_linear_68_337)"/>
<path d="M85.8551 242.088C65.8472 242.088 48.3118 238.338 35.4226 230.437C22.1116 222.278 14.9047 210.351 14.5822 195.947C13.9571 168.054 38.1142 134.807 79.2031 107.014C143.276 63.6726 227.886 48.3238 267.813 72.7981C281.124 80.9579 288.33 92.8843 288.653 107.289C289.278 135.182 265.121 168.429 224.032 196.222C180.643 225.572 127.826 242.088 85.8551 242.088ZM217.353 62.0111C175.588 62.0111 122.964 78.4853 79.7008 107.749C38.8631 135.373 14.8521 168.337 15.4707 195.927C15.7862 210.015 22.8463 221.686 35.887 229.68C75.544 253.989 159.722 238.65 223.534 195.486C264.371 167.863 288.383 134.899 287.765 107.308C287.449 93.2213 280.389 81.55 267.348 73.5562C254.577 65.7276 237.19 62.0111 217.353 62.0111Z" fill="url(#paint11_linear_68_337)"/>
<path d="M93.6082 244.019C67.1472 244.019 44.1631 238.13 28.9811 225.916C16.3339 215.74 10.2072 202.026 11.2644 186.255C13.2849 156.114 40.2333 122.561 83.3526 96.5008C150.968 55.6351 236.605 47.0304 274.255 77.32C286.902 87.4954 293.029 101.21 291.971 116.981C289.951 147.121 263.002 180.674 219.883 206.735C179.534 231.121 132.765 244.019 93.6082 244.019ZM209.632 60.0772C170.654 60.0772 124.047 72.9442 83.812 97.2616C40.9408 123.172 14.1516 156.463 12.151 186.314C11.1141 201.783 17.1261 215.237 29.5383 225.223C66.9194 255.297 152.101 246.662 219.423 205.974C262.294 180.064 289.083 146.773 291.084 116.921C292.121 101.453 286.109 87.9977 273.697 78.0125C258.657 65.9121 235.871 60.0772 209.632 60.0772Z" fill="url(#paint12_linear_68_337)"/>
<path d="M102.652 246.919C69.0511 246.919 39.938 238.119 22.9591 220.41C11.0136 207.951 6.16311 192.189 8.93138 174.828C14.0511 142.723 43.7597 109.333 88.4022 85.5105C159.331 47.6604 245.406 46.4563 280.276 82.8254C292.221 95.2844 297.072 111.046 294.304 128.407C289.184 160.512 259.475 193.902 214.832 217.725C178.441 237.144 138.056 246.919 102.652 246.919ZM200.616 57.1797C165.361 57.1797 125.112 66.9283 88.8202 86.2951C44.4216 109.987 14.8844 143.136 9.80838 174.969C7.08574 192.044 11.8546 207.545 23.5999 219.795C58.2135 255.897 143.812 254.617 214.414 216.942C258.813 193.249 288.35 160.1 293.425 128.267C296.148 111.192 291.379 95.6912 279.634 83.4413C262.814 65.8967 233.946 57.1797 200.616 57.1797Z" fill="url(#paint13_linear_68_337)"/>
<path d="M112.41 250.967C71.2538 250.969 35.4845 238.278 17.4414 213.88C6.28357 198.793 2.97345 180.687 7.86922 161.521C16.4582 127.894 48.8028 95.2094 94.3916 74.0878C168.361 39.8175 254.223 46.6662 285.792 89.3545C296.95 104.442 300.26 122.548 295.365 141.714C286.776 175.341 254.431 208.026 208.843 229.147C177.15 243.831 143.264 250.966 112.41 250.967ZM190.874 53.1365C160.139 53.1365 126.37 60.2515 94.7651 74.8943C49.4163 95.9042 17.2539 128.37 8.73011 161.74C3.9026 180.639 7.16172 198.486 18.1554 213.352C49.4888 255.719 134.862 262.443 208.469 228.341C253.818 207.331 285.98 174.865 294.504 141.494C299.331 122.595 296.072 104.748 285.078 89.883C267.199 65.7075 231.718 53.1365 190.874 53.1365Z" fill="url(#paint14_linear_68_337)"/>
<path d="M122.164 256.298C73.3379 256.301 30.6714 238.511 12.5176 206.292C2.29962 188.156 0.875033 167.393 8.39796 146.246C20.6886 111.699 55.439 80.312 101.355 62.2858C178.041 32.1803 262.989 47.7281 290.717 96.9431C300.935 115.079 302.36 135.842 294.837 156.988C282.547 191.536 247.796 222.923 201.879 240.948C175.397 251.346 147.92 256.297 122.164 256.298ZM181.119 47.8121C155.46 47.8121 128.081 52.7489 101.68 63.1133C55.9997 81.0467 21.4413 112.236 9.23546 146.544C1.80073 167.441 3.20347 187.951 13.2918 205.856C40.8127 254.699 125.266 270.071 201.555 240.122C247.235 222.188 281.794 190.999 293.999 156.691C301.434 135.794 300.031 115.284 289.943 97.3798C271.947 65.4391 229.604 47.8121 181.119 47.8121Z" fill="url(#paint15_linear_68_337)"/>
<path d="M131.206 262.99C74.8502 262.992 25.4082 238.669 8.27552 197.614C-0.766325 175.946 0.120643 152.223 10.8402 129.01C26.883 94.2676 63.6993 64.7933 109.322 50.1662C188.346 24.8291 271.624 49.706 294.958 105.621C303.999 127.288 303.113 151.011 292.393 174.224C276.35 208.967 239.535 238.441 193.912 253.069C172.91 259.802 151.603 262.989 131.206 262.99ZM172.063 41.1274C151.744 41.1274 130.524 44.3022 109.593 51.0125C64.2028 65.5652 27.5871 94.8623 11.6466 129.383C1.03445 152.365 0.15209 175.84 9.09577 197.272C26.0885 237.992 75.1865 262.106 131.171 262.108C151.49 262.109 172.71 258.933 193.641 252.223C239.031 237.67 275.646 208.373 291.587 173.852C302.199 150.87 303.081 127.395 294.137 105.963C277.145 65.2435 228.047 41.1274 172.063 41.1274Z" fill="url(#paint16_linear_68_337)"/>
<path d="M138.967 271.063C75.3723 271.063 19.6694 238.583 4.80913 187.822C-2.72261 162.094 0.971364 135.158 15.4911 109.927C35.4292 75.2794 72.9077 48.9891 118.316 37.7967C199.261 17.8463 280.055 52.6642 298.424 115.412C305.956 141.14 302.262 168.076 287.742 193.307C267.805 227.955 230.326 254.245 184.917 265.438C169.453 269.25 153.986 271.063 138.967 271.063ZM164.284 33.0585C149.325 33.0585 133.935 34.8628 118.529 38.6599C73.3545 49.7947 36.0788 75.9321 16.2615 110.37C1.86561 135.387 -1.79959 162.083 5.66236 187.573C20.4087 237.946 75.7546 270.173 138.949 270.176C153.909 270.177 169.299 268.372 184.704 264.575C229.88 253.44 267.155 227.302 286.973 192.864C301.369 167.848 305.033 141.152 297.572 115.662C282.825 65.2888 227.479 33.0585 164.284 33.0585Z" fill="url(#paint17_linear_68_337)"/>
<path d="M145.071 280.498C74.565 280.502 13.4759 238.08 2.21145 176.9C-3.29404 146.998 3.93821 115.862 22.5756 89.2286C45.8182 56.0132 84.3746 32.6959 128.358 25.2554C210.738 11.3174 288.194 56.6643 301.022 126.337C306.527 156.238 299.296 187.374 280.659 214.007C257.415 247.223 218.859 270.54 174.876 277.981C164.834 279.679 154.858 280.497 145.071 280.498ZM158.168 23.626C148.424 23.626 138.504 24.4397 128.506 26.1312C84.7558 33.5326 46.411 56.7164 23.3039 89.7379C4.80371 116.175 -2.37678 147.072 3.08499 176.738C14.2704 237.489 74.988 279.607 145.065 279.61C154.809 279.61 164.729 278.796 174.728 277.105C218.478 269.703 256.823 246.519 279.93 213.498C298.43 187.06 305.61 156.163 300.148 126.498C288.963 65.7464 228.246 23.626 158.168 23.626Z" fill="url(#paint18_linear_68_337)"/>
<path d="M149.313 291.244C72.1706 291.251 6.8909 237.006 0.576296 164.832C-6.12868 88.1908 56.173 19.9112 139.457 12.6249C179.795 9.09617 218.984 20.231 249.806 43.9793C280.639 67.7361 299.409 101.27 302.657 138.404C305.906 175.537 293.245 211.82 267.005 240.57C240.775 269.31 204.115 287.082 163.777 290.611C158.923 291.035 154.089 291.244 149.313 291.244ZM154.079 12.873C149.255 12.873 144.405 13.0843 139.534 13.5103C56.7386 20.7537 -5.20069 88.6015 1.46173 164.754C7.7353 236.459 72.6361 290.351 149.314 290.355C154.071 290.356 158.864 290.148 163.7 289.725C203.815 286.216 240.269 268.546 266.349 239.971C292.419 211.407 305 175.364 301.772 138.481C298.545 101.598 279.898 68.2868 249.264 44.6834C222.339 23.9376 188.987 12.873 154.079 12.873Z" fill="url(#paint19_linear_68_337)"/>
<path d="M151.617 303.235C68.0154 303.235 0 235.22 0 151.618C0 68.0154 68.0154 0 151.617 0C235.22 0 303.235 68.0154 303.235 151.618C303.235 235.22 235.22 303.235 151.617 303.235ZM151.617 0.888885C68.5051 0.888885 0.888501 68.5058 0.888501 151.618C0.888501 234.73 68.5051 302.346 151.617 302.346C234.73 302.346 302.346 234.73 302.346 151.618C302.346 68.5054 234.729 0.888885 151.617 0.888885Z" fill="url(#paint20_linear_68_337)"/>
<defs>
<linearGradient id="paint0_linear_68_337" x1="70.1367" y1="151.667" x2="233.098" y2="151.667" gradientUnits="userSpaceOnUse">
<stop stop-color="#C2AE82"/>
<stop offset="1" stop-color="#DAC6A1"/>
</linearGradient>
<linearGradient id="paint1_linear_68_337" x1="64.5703" y1="151.668" x2="238.665" y2="151.668" gradientUnits="userSpaceOnUse">
<stop stop-color="#C2AE82"/>
<stop offset="1" stop-color="#DAC6A1"/>
</linearGradient>
<linearGradient id="paint2_linear_68_337" x1="58.959" y1="151.669" x2="244.276" y2="151.669" gradientUnits="userSpaceOnUse">
<stop stop-color="#C2AE82"/>
<stop offset="1" stop-color="#DAC6A1"/>
</linearGradient>
<linearGradient id="paint3_linear_68_337" x1="53.3516" y1="151.669" x2="249.883" y2="151.669" gradientUnits="userSpaceOnUse">
<stop stop-color="#C2AE82"/>
<stop offset="1" stop-color="#DAC6A1"/>
</linearGradient>
<linearGradient id="paint4_linear_68_337" x1="47.7969" y1="151.67" x2="255.437" y2="151.67" gradientUnits="userSpaceOnUse">
<stop stop-color="#C2AE82"/>
<stop offset="1" stop-color="#DAC6A1"/>
</linearGradient>
<linearGradient id="paint5_linear_68_337" x1="42.4355" y1="151.669" x2="260.799" y2="151.669" gradientUnits="userSpaceOnUse">
<stop stop-color="#C2AE82"/>
<stop offset="1" stop-color="#DAC6A1"/>
</linearGradient>
<linearGradient id="paint6_linear_68_337" x1="37.127" y1="151.67" x2="266.106" y2="151.67" gradientUnits="userSpaceOnUse">
<stop stop-color="#C2AE82"/>
<stop offset="1" stop-color="#DAC6A1"/>
</linearGradient>
<linearGradient id="paint7_linear_68_337" x1="32.0225" y1="151.67" x2="271.212" y2="151.67" gradientUnits="userSpaceOnUse">
<stop stop-color="#C2AE82"/>
<stop offset="1" stop-color="#DAC6A1"/>
</linearGradient>
<linearGradient id="paint8_linear_68_337" x1="27.1689" y1="151.669" x2="276.065" y2="151.669" gradientUnits="userSpaceOnUse">
<stop stop-color="#C2AE82"/>
<stop offset="1" stop-color="#DAC6A1"/>
</linearGradient>
<linearGradient id="paint9_linear_68_337" x1="22.6152" y1="151.67" x2="280.619" y2="151.67" gradientUnits="userSpaceOnUse">
<stop stop-color="#C2AE82"/>
<stop offset="1" stop-color="#DAC6A1"/>
</linearGradient>
<linearGradient id="paint10_linear_68_337" x1="18.4043" y1="151.671" x2="284.831" y2="151.671" gradientUnits="userSpaceOnUse">
<stop stop-color="#C2AE82"/>
<stop offset="1" stop-color="#DAC6A1"/>
</linearGradient>
<linearGradient id="paint11_linear_68_337" x1="14.5703" y1="151.671" x2="288.665" y2="151.671" gradientUnits="userSpaceOnUse">
<stop stop-color="#C2AE82"/>
<stop offset="1" stop-color="#DAC6A1"/>
</linearGradient>
<linearGradient id="paint12_linear_68_337" x1="11.1475" y1="151.672" x2="292.088" y2="151.672" gradientUnits="userSpaceOnUse">
<stop stop-color="#C2AE82"/>
<stop offset="1" stop-color="#DAC6A1"/>
</linearGradient>
<linearGradient id="paint13_linear_68_337" x1="8.17383" y1="151.674" x2="295.061" y2="151.674" gradientUnits="userSpaceOnUse">
<stop stop-color="#C2AE82"/>
<stop offset="1" stop-color="#DAC6A1"/>
</linearGradient>
<linearGradient id="paint14_linear_68_337" x1="5.66895" y1="151.676" x2="297.565" y2="151.676" gradientUnits="userSpaceOnUse">
<stop stop-color="#C2AE82"/>
<stop offset="1" stop-color="#DAC6A1"/>
</linearGradient>
<linearGradient id="paint15_linear_68_337" x1="3.64258" y1="151.679" x2="299.592" y2="151.679" gradientUnits="userSpaceOnUse">
<stop stop-color="#C2AE82"/>
<stop offset="1" stop-color="#DAC6A1"/>
</linearGradient>
<linearGradient id="paint16_linear_68_337" x1="2.09082" y1="151.683" x2="301.143" y2="151.683" gradientUnits="userSpaceOnUse">
<stop stop-color="#C2AE82"/>
<stop offset="1" stop-color="#DAC6A1"/>
</linearGradient>
<linearGradient id="paint17_linear_68_337" x1="1.00391" y1="151.688" x2="302.229" y2="151.688" gradientUnits="userSpaceOnUse">
<stop stop-color="#C2AE82"/>
<stop offset="1" stop-color="#DAC6A1"/>
</linearGradient>
<linearGradient id="paint18_linear_68_337" x1="0.413086" y1="151.694" x2="302.82" y2="151.694" gradientUnits="userSpaceOnUse">
<stop stop-color="#C2AE82"/>
<stop offset="1" stop-color="#DAC6A1"/>
</linearGradient>
<linearGradient id="paint19_linear_68_337" x1="0.0820312" y1="151.696" x2="303.157" y2="151.696" gradientUnits="userSpaceOnUse">
<stop stop-color="#C2AE82"/>
<stop offset="1" stop-color="#DAC6A1"/>
</linearGradient>
<linearGradient id="paint20_linear_68_337" x1="0" y1="151.707" x2="303.235" y2="151.707" gradientUnits="userSpaceOnUse">
<stop stop-color="#C2AE82"/>
<stop offset="1" stop-color="#DAC6A1"/>
</linearGradient>
</defs>
</svg>
