<svg width="20" height="20" viewBox="0 0 20 20" fill="none" xmlns="http://www.w3.org/2000/svg">
<path d="M18.3337 4.31651L8.82533 13.8332L5.29199 10.2998L6.46699 9.12485L8.82533 11.4832L17.1587 3.14985L18.3337 4.31651ZM16.492 8.51651C16.6003 8.99151 16.667 9.49151 16.667 9.99984C16.667 13.6832 13.6837 16.6665 10.0003 16.6665C6.31699 16.6665 3.33366 13.6832 3.33366 9.99984C3.33366 6.31651 6.31699 3.33318 10.0003 3.33318C11.317 3.33318 12.5337 3.71651 13.567 4.37485L14.767 3.17484C13.3724 2.19114 11.707 1.66415 10.0003 1.66651C5.40033 1.66651 1.66699 5.39985 1.66699 9.99984C1.66699 14.5998 5.40033 18.3332 10.0003 18.3332C14.6003 18.3332 18.3337 14.5998 18.3337 9.99984C18.3337 9.00818 18.1503 8.05818 17.8337 7.17484L16.492 8.51651Z" fill="#8E7F61"/>
</svg>
