<svg width="108" height="35" viewBox="0 0 108 35" fill="none" xmlns="http://www.w3.org/2000/svg">
<g clip-path="url(#clip0_68_148)">
<path d="M22.2803 15.23V3.81H29.9003V4.68H23.2203V9.74H29.0203V10.61H23.2203V15.23H22.2803Z" fill="white"/>
<path d="M31.9004 15.23V3.81H32.8404V15.23H31.9004Z" fill="white"/>
<path d="M35.6602 15.23V3.81H39.5402C40.2681 3.76596 40.9974 3.869 41.6847 4.11297C42.3719 4.35694 43.0029 4.73684 43.5402 5.23C44.0545 5.79924 44.4489 6.46631 44.6998 7.19136C44.9506 7.91642 45.0528 8.68459 45.0002 9.45C45.0831 10.9891 44.5833 12.5029 43.6002 13.69C43.0859 14.2227 42.4615 14.6365 41.7705 14.9025C41.0796 15.1685 40.3388 15.2803 39.6002 15.23H35.6602ZM36.5902 14.36H39.5902C40.2006 14.3977 40.8121 14.3039 41.3832 14.0848C41.9543 13.8657 42.4716 13.5264 42.9002 13.09C43.7546 12.0773 44.1814 10.7718 44.0902 9.45C44.163 8.16398 43.7367 6.89946 42.9002 5.92C42.4598 5.48719 41.9326 5.15283 41.3534 4.93907C40.7741 4.7253 40.1561 4.637 39.5402 4.68H36.5402L36.5902 14.36Z" fill="white"/>
<path d="M51.5898 15.38C48.5565 15.38 47.0432 13.8467 47.0498 10.78V3.78H47.9798V10.58C47.8942 11.6263 48.2007 12.6671 48.8398 13.5C49.2001 13.8536 49.6319 14.1259 50.1063 14.2984C50.5807 14.4709 51.0866 14.5396 51.5898 14.5C52.0929 14.5377 52.5982 14.468 53.0723 14.2956C53.5464 14.1232 53.9785 13.852 54.3398 13.5C54.9825 12.6685 55.2926 11.6276 55.2098 10.58V3.81H56.1298V10.81C56.1298 13.8633 54.6165 15.3867 51.5898 15.38Z" fill="white"/>
<path d="M63.9001 15.38C63.1314 15.4154 62.3637 15.2905 61.6458 15.0134C60.9279 14.7362 60.2755 14.3128 59.7301 13.77C59.1954 13.1902 58.7819 12.5093 58.514 11.7675C58.2461 11.0256 58.1292 10.2377 58.1701 9.45C58.1297 8.67213 58.2481 7.89419 58.518 7.16354C58.7879 6.43289 59.2037 5.76482 59.7401 5.2C60.2957 4.67877 60.95 4.274 61.6644 4.00952C62.3788 3.74504 63.139 3.6262 63.9001 3.66C64.8153 3.62276 65.7267 3.79951 66.5617 4.17621C67.3967 4.55291 68.1323 5.11917 68.7101 5.83L67.9801 6.45C67.4969 5.8346 66.876 5.3412 66.1674 5.00947C65.4587 4.67773 64.6822 4.51693 63.9001 4.54C63.2629 4.51037 62.6265 4.61129 62.0297 4.83657C61.433 5.06184 60.8887 5.40671 60.4301 5.85C59.9819 6.33148 59.6358 6.89858 59.4124 7.51723C59.189 8.13588 59.093 8.7933 59.1301 9.45C59.0648 10.7983 59.5358 12.1177 60.4401 13.12C60.8868 13.5811 61.426 13.9425 62.0224 14.1803C62.6187 14.4182 63.2586 14.5271 63.9001 14.5C64.6818 14.5352 65.4606 14.3819 66.1707 14.0529C66.8808 13.724 67.5014 13.2291 67.9801 12.61L68.7101 13.22C68.1318 13.9296 67.3958 14.4944 66.5607 14.8694C65.7257 15.2444 64.8146 15.4192 63.9001 15.38Z" fill="white"/>
<path d="M70.8203 15.23V3.81H71.7603V15.23H70.8203Z" fill="white"/>
<path d="M83.1502 15.23L81.8202 12.23H75.8202L74.4902 15.23H73.4902L78.4902 3.74H79.1102L84.1602 15.23H83.1502ZM78.8002 5.15L77.5302 8.1L76.1802 11.34H81.4002L80.0402 8.1L78.8002 5.15Z" fill="white"/>
<path d="M94.3195 3.81H95.2395V15.31H94.7095L86.7095 5.61V15.23H85.7695V3.73H86.3195L94.3195 13.43V3.81Z" fill="white"/>
<path d="M106.61 15.23L105.28 12.23H99.2804L97.9504 15.23H96.9004L101.97 3.74H102.58L107.58 15.23H106.61ZM102.25 5.15L100.99 8.1L99.6304 11.34H104.9L103.5 8.1L102.25 5.15Z" fill="white"/>
<path d="M26.3096 31.26V20.71H22.3096V19.84H31.3096V20.71H27.3096V31.26H26.3096Z" fill="white"/>
<path d="M42.0095 31.26H40.8995L38.1195 27.39H37.3295H34.2095V31.23H33.2695V19.84H37.5895C38.6894 19.7624 39.7782 20.1015 40.6395 20.79C40.9936 21.1582 41.2658 21.5971 41.4381 22.078C41.6105 22.5588 41.6791 23.0707 41.6395 23.58C41.7238 24.3955 41.507 25.2136 41.0299 25.8804C40.5529 26.5471 39.8486 27.0165 39.0495 27.2L42.0095 31.26ZM37.2195 26.55C38.1422 26.608 39.0557 26.3389 39.7995 25.79C40.1065 25.5133 40.3469 25.1708 40.5027 24.7881C40.6586 24.4054 40.7259 23.9924 40.6995 23.58C40.73 23.1866 40.6742 22.7912 40.5361 22.4216C40.3979 22.0519 40.1806 21.7169 39.8995 21.44C39.2168 20.9093 38.3621 20.6494 37.4995 20.71H34.2095V26.55H37.2195Z" fill="white"/>
<path d="M48.3301 31.41C45.2967 31.41 43.7834 29.8767 43.7901 26.81V19.81H44.7201V26.61C44.6344 27.6563 44.941 28.6971 45.5801 29.53C45.9403 29.8836 46.3722 30.1559 46.8466 30.3284C47.321 30.5009 47.8268 30.5696 48.3301 30.53C48.8331 30.5677 49.3385 30.498 49.8126 30.3256C50.2867 30.1532 50.7187 29.882 51.0801 29.53C51.7227 28.6985 52.0328 27.6576 51.9501 26.61V19.81H52.9001V26.81C52.9001 29.8833 51.3767 31.4167 48.3301 31.41Z" fill="white"/>
<path d="M59.4004 31.41C58.5971 31.4224 57.7951 31.3419 57.0104 31.17C56.2792 30.9974 55.5709 30.7389 54.9004 30.4L55.2704 29.5C55.9058 29.8366 56.5765 30.1015 57.2704 30.29C57.9575 30.4579 58.6631 30.5385 59.3704 30.53C60.161 30.5782 60.9461 30.3713 61.6104 29.94C61.875 29.747 62.0882 29.4919 62.2311 29.1973C62.3741 28.9026 62.4425 28.5773 62.4304 28.25C62.4378 27.9713 62.3723 27.6956 62.2404 27.45C62.1361 27.2335 61.99 27.0397 61.8104 26.88C61.5855 26.6962 61.3275 26.557 61.0504 26.47C60.7557 26.3576 60.4553 26.2608 60.1504 26.18L59.0504 25.93C58.4852 25.8221 57.9274 25.6784 57.3804 25.5C56.9489 25.356 56.536 25.1613 56.1504 24.92C55.7837 24.7037 55.4856 24.3883 55.2904 24.01C55.1011 23.6034 55.0086 23.1584 55.0204 22.71C55.0047 22.2923 55.087 21.8767 55.2606 21.4964C55.4343 21.1161 55.6945 20.7818 56.0204 20.52C56.8563 19.9201 57.8735 19.627 58.9004 19.69C60.2851 19.6577 61.6571 19.9596 62.9004 20.57L62.5004 21.41C61.3863 20.8422 60.1508 20.5539 58.9004 20.57C58.1352 20.5229 57.3768 20.738 56.7504 21.18C56.5064 21.353 56.3079 21.5825 56.1721 21.849C56.0362 22.1155 55.967 22.4109 55.9704 22.71C55.9641 22.9691 56.0189 23.226 56.1304 23.46C56.2332 23.6745 56.3797 23.8653 56.5604 24.02C56.7817 24.1951 57.0277 24.3367 57.2904 24.44C57.5861 24.5672 57.8901 24.6741 58.2004 24.76C58.5104 24.84 58.8904 24.93 59.3504 25.02L60.6304 25.33C60.996 25.4341 61.3536 25.5644 61.7004 25.72C62.0346 25.8556 62.3425 26.0485 62.6104 26.29C62.8406 26.5174 63.027 26.7852 63.1604 27.08C63.3136 27.4331 63.3886 27.8152 63.3804 28.2C63.4114 28.656 63.3312 29.1127 63.1465 29.5308C62.9618 29.9489 62.6783 30.3158 62.3204 30.6C61.4648 31.1885 60.4369 31.4736 59.4004 31.41Z" fill="white"/>
<path d="M68.5098 31.26V20.71H64.5098V19.84H73.5098V20.71H69.5098V31.26H68.5098Z" fill="white"/>
<path d="M0 27.25V35L13.76 25.38V17.64L0 27.25Z" fill="url(#paint0_linear_68_148)"/>
<path d="M0 0V7.67L13.76 16.99V9.32L0 0Z" fill="url(#paint1_linear_68_148)"/>
</g>
<defs>
<linearGradient id="paint0_linear_68_148" x1="0" y1="26.32" x2="13.76" y2="26.32" gradientUnits="userSpaceOnUse">
<stop stop-color="#946C39"/>
<stop offset="1" stop-color="#AB8756"/>
</linearGradient>
<linearGradient id="paint1_linear_68_148" x1="0" y1="8.5" x2="13.76" y2="8.5" gradientUnits="userSpaceOnUse">
<stop stop-color="#946C39"/>
<stop offset="1" stop-color="#AB8756"/>
</linearGradient>
<clipPath id="clip0_68_148">
<rect width="107.61" height="35" fill="white"/>
</clipPath>
</defs>
</svg>
