<svg width="160" height="53" viewBox="0 0 160 53" fill="none" xmlns="http://www.w3.org/2000/svg">
<g clip-path="url(#clip0_68_260)">
<path d="M33.127 23.0627V5.76953H44.4568V7.08696H34.5246V14.7492H43.1483V16.0667H34.5246V23.0627H33.127Z" fill="#5B5B5B"/>
<path d="M47.4307 23.0627V5.76953H48.8283V23.0627H47.4307Z" fill="#5B5B5B"/>
<path d="M53.0215 23.0625V5.7694H58.7905C59.8728 5.70271 60.9572 5.85874 61.979 6.22818C63.0008 6.59762 63.9391 7.1729 64.7379 7.91969C65.5027 8.78168 66.0891 9.79181 66.4621 10.8898C66.835 11.9877 66.9869 13.1509 66.9087 14.31C67.032 16.6406 66.2888 18.933 64.8271 20.7305C64.0625 21.5372 63.134 22.1638 62.1067 22.5667C61.0794 22.9695 59.978 23.1387 58.8797 23.0625H53.0215ZM54.4043 21.7451H58.8648C59.7725 21.8023 60.6817 21.6601 61.5308 21.3283C62.3799 20.9965 63.1491 20.4828 63.7863 19.822C65.0567 18.2885 65.6913 16.3116 65.5556 14.31C65.6639 12.3626 65.0301 10.4477 63.7863 8.96455C63.1316 8.30915 62.3477 7.80284 61.4864 7.47913C60.6252 7.15543 59.7063 7.02171 58.7905 7.08683H54.3299L54.4043 21.7451Z" fill="#5B5B5B"/>
<path d="M76.7064 23.2898C72.1963 23.2898 69.9462 20.9679 69.9561 16.3241V5.72412H71.3389V16.0213C71.2116 17.6057 71.6673 19.1817 72.6175 20.443C73.1532 20.9785 73.7953 21.3907 74.5006 21.6519C75.206 21.9132 75.9582 22.0173 76.7064 21.9573C77.4544 22.0143 78.2057 21.9088 78.9106 21.6478C79.6156 21.3867 80.2579 20.976 80.7952 20.443C81.7507 19.1839 82.2119 17.6076 82.0888 16.0213V5.76955H83.4567V16.3696C83.4567 20.9932 81.2066 23.2999 76.7064 23.2898Z" fill="#5B5B5B"/>
<path d="M95.01 23.2896C93.867 23.3432 92.7256 23.1542 91.6583 22.7345C90.5909 22.3148 89.6209 21.6736 88.8098 20.8516C88.0148 19.9736 87.4001 18.9426 87.0018 17.8192C86.6035 16.6958 86.4296 15.5027 86.4903 14.3099C86.4303 13.132 86.6063 11.954 87.0077 10.8476C87.409 9.74115 88.0272 8.7295 88.8247 7.87421C89.6508 7.08492 90.6236 6.47198 91.6859 6.07148C92.7482 5.67098 93.8784 5.49102 95.01 5.54221C96.3709 5.48581 97.7259 5.75347 98.9674 6.3239C100.209 6.89433 101.303 7.75181 102.162 8.82821L101.076 9.76706C100.358 8.83518 99.4347 8.08802 98.3811 7.58568C97.3275 7.08334 96.1728 6.83985 95.01 6.87478C94.0627 6.82991 93.1163 6.98274 92.2291 7.32387C91.3419 7.66499 90.5325 8.18722 89.8506 8.85849C89.1843 9.58759 88.6697 10.4463 88.3375 11.3832C88.0053 12.32 87.8625 13.3155 87.9177 14.3099C87.8207 16.3517 88.521 18.3496 89.8655 19.8673C90.5297 20.5656 91.3315 21.1128 92.2181 21.473C93.1048 21.8331 94.0563 21.9981 95.01 21.9571C96.1724 22.0104 97.3303 21.7782 98.3861 21.28C99.4419 20.7819 100.365 20.0325 101.076 19.0951L102.162 20.0188C101.302 21.0933 100.208 21.9486 98.966 22.5164C97.7244 23.0842 96.3698 23.349 95.01 23.2896Z" fill="#5B5B5B"/>
<path d="M105.299 23.0627V5.76953H106.696V23.0627H105.299Z" fill="#5B5B5B"/>
<path d="M123.632 23.0627L121.654 18.5199H112.733L110.755 23.0627H109.269L116.703 5.66357H117.625L125.133 23.0627H123.632ZM117.164 7.79872L115.275 12.2659L113.268 17.1721H121.03L119.007 12.2659L117.164 7.79872Z" fill="#5B5B5B"/>
<path d="M140.24 5.76958H141.608V23.1839H140.82L128.925 8.4953V23.0627H127.527V5.64844H128.345L140.24 20.337V5.76958Z" fill="#5B5B5B"/>
<path d="M158.513 23.0627L156.536 18.5199H147.615L145.637 23.0627H144.076L151.615 5.66357H152.521L159.956 23.0627H158.513ZM152.031 7.79872L150.157 12.2659L148.135 17.1721H155.971L153.889 12.2659L152.031 7.79872Z" fill="#5B5B5B"/>
<path d="M39.1193 47.3366V31.3609H33.1719V30.0435H46.5535V31.3609H40.6061V47.3366H39.1193Z" fill="#5B5B5B"/>
<path d="M62.4629 47.3365H60.8124L56.679 41.4762H55.5044H50.8654V47.2911H49.4678V30.0434H55.891C57.5263 29.9258 59.1453 30.4394 60.4259 31.4819C60.9524 32.0394 61.357 32.7041 61.6133 33.4323C61.8695 34.1604 61.9716 34.9356 61.9127 35.7068C62.038 36.9417 61.7156 38.1806 61.0063 39.1902C60.2971 40.1999 59.2498 40.9106 58.0618 41.1885L62.4629 47.3365ZM55.3408 40.2042C56.7126 40.292 58.0709 39.8845 59.1769 39.0534C59.6333 38.6344 59.9907 38.1158 60.2225 37.5362C60.4542 36.9567 60.5542 36.3313 60.5151 35.7068C60.5604 35.111 60.4775 34.5123 60.272 33.9526C60.0666 33.3929 59.7436 32.8856 59.3256 32.4662C58.3104 31.6626 57.0397 31.269 55.7572 31.3608H50.8654V40.2042H55.3408Z" fill="#5B5B5B"/>
<path d="M71.8597 47.5638C67.3496 47.5638 65.0995 45.2419 65.1094 40.598V29.998H66.4922V40.2952C66.3649 41.8796 66.8206 43.4557 67.7709 44.7169C68.3065 45.2524 68.9486 45.6646 69.654 45.9259C70.3593 46.1871 71.1115 46.2912 71.8597 46.2312C72.6077 46.2882 73.359 46.1827 74.064 45.9217C74.7689 45.6606 75.4113 45.25 75.9486 44.7169C76.9041 43.4578 77.3652 41.8816 77.2421 40.2952V29.998H78.6546V40.598C78.6546 45.252 76.3896 47.5739 71.8597 47.5638Z" fill="#5B5B5B"/>
<path d="M88.3188 47.5639C87.1244 47.5826 85.932 47.4607 84.7652 47.2004C83.678 46.9391 82.6249 46.5477 81.6279 46.0344L82.1781 44.6716C83.1228 45.1812 84.1201 45.5825 85.1518 45.8679C86.1734 46.1221 87.2225 46.2442 88.2742 46.2313C89.4496 46.3042 90.617 45.991 91.6047 45.3379C91.9981 45.0456 92.3151 44.6594 92.5277 44.2131C92.7402 43.7669 92.842 43.2743 92.8239 42.7787C92.835 42.3567 92.7376 41.9391 92.5414 41.5673C92.3863 41.2394 92.169 40.946 91.9021 40.7041C91.5677 40.4258 91.1841 40.215 90.7721 40.0833C90.3339 39.9131 89.8872 39.7665 89.4339 39.6441L87.7984 39.2656C86.958 39.1021 86.1287 38.8846 85.3153 38.6144C84.6737 38.3964 84.0598 38.1015 83.4865 37.7361C82.9413 37.4086 82.4981 36.931 82.2078 36.3581C81.9263 35.7424 81.7889 35.0685 81.8064 34.3896C81.7831 33.757 81.9054 33.1276 82.1636 32.5518C82.4217 31.976 82.8086 31.4697 83.2932 31.0733C84.536 30.1649 86.0485 29.721 87.5753 29.8164C89.6341 29.7675 91.6742 30.2246 93.5227 31.149L92.928 32.421C91.2715 31.5612 89.4344 31.1246 87.5753 31.149C86.4376 31.0776 85.31 31.4034 84.3786 32.0727C84.0158 32.3346 83.7208 32.6823 83.5188 33.0858C83.3168 33.4893 83.2139 33.9367 83.2189 34.3896C83.2095 34.7819 83.291 35.171 83.4568 35.5253C83.6096 35.8502 83.8274 36.139 84.0961 36.3733C84.4252 36.6385 84.791 36.8528 85.1815 37.0093C85.6212 37.2019 86.0732 37.3638 86.5345 37.4939C86.9955 37.615 87.5605 37.7513 88.2444 37.8876L90.1476 38.357C90.6912 38.5146 91.2228 38.712 91.7385 38.9476C92.2354 39.1529 92.6933 39.445 93.0915 39.8107C93.4338 40.1551 93.711 40.5606 93.9093 41.007C94.1371 41.5417 94.2487 42.1203 94.2364 42.703C94.2826 43.3935 94.1632 44.0851 93.8887 44.7182C93.6141 45.3513 93.1926 45.9069 92.6604 46.3373C91.3882 47.2284 89.8598 47.6602 88.3188 47.5639Z" fill="#5B5B5B"/>
<path d="M101.864 47.3366V31.3609H95.917V30.0435H109.299V31.3609H103.351V47.3366H101.864Z" fill="#5B5B5B"/>
<path d="M0 41.2642V52.9999L20.4591 38.4325V26.7119L0 41.2642Z" fill="url(#paint0_linear_68_260)"/>
<path d="M0 0V11.6146L20.4591 25.7277V14.1131L0 0Z" fill="url(#paint1_linear_68_260)"/>
</g>
<defs>
<linearGradient id="paint0_linear_68_260" x1="0" y1="39.8559" x2="20.4591" y2="39.8559" gradientUnits="userSpaceOnUse">
<stop stop-color="#946C39"/>
<stop offset="1" stop-color="#AB8756"/>
</linearGradient>
<linearGradient id="paint1_linear_68_260" x1="0" y1="12.8714" x2="20.4591" y2="12.8714" gradientUnits="userSpaceOnUse">
<stop stop-color="#946C39"/>
<stop offset="1" stop-color="#AB8756"/>
</linearGradient>
<clipPath id="clip0_68_260">
<rect width="160" height="53" fill="white"/>
</clipPath>
</defs>
</svg>
