<svg width="10" height="10" viewBox="0 0 10 10" xmlns="http://www.w3.org/2000/svg">
<path d="M9.5 7.21V8.978C9.50006 9.10459 9.4521 9.22649 9.3658 9.3191C9.2795 9.41171 9.16128 9.46814 9.035 9.477C8.81667 9.49233 8.63833 9.5 8.5 9.5C4.0815 9.5 0.5 5.9185 0.5 1.5C0.5 1.362 0.507667 1.18367 0.523 0.965C0.531861 0.838722 0.588291 0.720505 0.680902 0.634204C0.773513 0.547903 0.895411 0.499943 1.022 0.5H2.79C2.85202 0.499937 2.91185 0.52293 2.95786 0.56451C3.00388 0.606091 3.0328 0.663291 3.039 0.725C3.05033 0.839667 3.061 0.931667 3.071 1.001C3.17036 1.69446 3.37399 2.36892 3.675 3.0015C3.7225 3.1015 3.6915 3.221 3.6015 3.285L2.5225 4.056C3.18236 5.59314 4.40736 6.81814 5.9445 7.478L6.7145 6.401C6.74584 6.35684 6.79176 6.32516 6.84417 6.31153C6.89658 6.2979 6.95212 6.3032 7.001 6.3265C7.63351 6.62694 8.30779 6.83007 9.001 6.929C9.07033 6.939 9.162 6.94967 9.276 6.961C9.33762 6.96732 9.3947 6.99629 9.43618 7.04229C9.47765 7.08829 9.50008 7.14806 9.5 7.21Z"/>
</svg>
