<svg width="14" height="13" viewBox="0 0 14 13" xmlns="http://www.w3.org/2000/svg">
<path fill-rule="evenodd" clip-rule="evenodd" d="M12.1851 0.953333C12.3498 0.883994 12.5302 0.860079 12.7073 0.884078C12.8844 0.908077 13.0519 0.979112 13.1922 1.08979C13.3326 1.20047 13.4407 1.34674 13.5053 1.51339C13.57 1.68003 13.5888 1.86096 13.5598 2.03733L12.0478 11.2087C11.9011 12.0933 10.9304 12.6007 10.1191 12.16C9.44042 11.7913 8.43242 11.2233 7.52575 10.6307C7.07242 10.334 5.68375 9.384 5.85442 8.708C6.00109 8.13 8.33442 5.958 9.66775 4.66667C10.1911 4.15933 9.95242 3.86667 9.33442 4.33333C7.79975 5.492 5.33575 7.254 4.52109 7.75C3.80242 8.18733 3.42775 8.262 2.97975 8.18733C2.16242 8.05133 1.40442 7.84067 0.785753 7.584C-0.0502466 7.23733 -0.00957994 6.088 0.785087 5.75333L12.1851 0.953333Z"/>
</svg>
