<svg width="14" height="14" viewBox="0 0 14 14" xmlns="http://www.w3.org/2000/svg">
<path d="M7.00066 0.333332C10.6827 0.333332 13.6673 3.318 13.6673 7C13.6673 10.682 10.6827 13.6667 7.00066 13.6667C5.8225 13.6687 4.66505 13.3569 3.64733 12.7633L0.336661 13.6667L1.23799 10.3547C0.643967 9.33662 0.33193 8.17868 0.333995 7C0.333995 3.318 3.31866 0.333332 7.00066 0.333332ZM4.72866 3.86667L4.59533 3.872C4.50912 3.87794 4.42489 3.90058 4.34733 3.93867C4.27504 3.97967 4.20904 4.03086 4.15133 4.09067C4.07133 4.166 4.02599 4.23133 3.97733 4.29467C3.73074 4.61527 3.59798 5.00887 3.59999 5.41333C3.60133 5.74 3.68666 6.058 3.81999 6.35533C4.09266 6.95667 4.54133 7.59333 5.13333 8.18333C5.27599 8.32533 5.416 8.468 5.56666 8.60067C6.30228 9.24827 7.17885 9.71531 8.12666 9.96467L8.50533 10.0227C8.62866 10.0293 8.752 10.02 8.876 10.014C9.07012 10.0038 9.25966 9.9512 9.43133 9.86C9.51856 9.8149 9.60375 9.76596 9.68666 9.71333C9.68666 9.71333 9.71488 9.69422 9.77 9.65333C9.86 9.58667 9.91533 9.53933 9.99 9.46133C10.046 9.40355 10.0927 9.33644 10.13 9.26C10.182 9.15133 10.234 8.944 10.2553 8.77133C10.2713 8.63933 10.2667 8.56733 10.2647 8.52267C10.262 8.45133 10.2027 8.37733 10.138 8.346L9.75 8.172C9.75 8.172 9.17 7.91933 8.81533 7.758C8.7782 7.74184 8.73844 7.73257 8.698 7.73067C8.65238 7.72589 8.60627 7.73098 8.56279 7.74559C8.51931 7.7602 8.47948 7.78398 8.446 7.81533C8.44266 7.814 8.39799 7.852 7.91599 8.436C7.88833 8.47317 7.85022 8.50127 7.80653 8.5167C7.76284 8.53214 7.71554 8.53421 7.67066 8.52267C7.62721 8.51109 7.58466 8.49638 7.54333 8.47867C7.46066 8.444 7.43199 8.43067 7.37533 8.40667C6.99258 8.23994 6.63829 8.01432 6.32533 7.738C6.24133 7.66467 6.16333 7.58467 6.08333 7.50733C5.82107 7.25614 5.5925 6.97199 5.40333 6.662L5.36399 6.59867C5.33617 6.55586 5.31335 6.51001 5.29599 6.462C5.27066 6.364 5.33666 6.28533 5.33666 6.28533C5.33666 6.28533 5.49866 6.108 5.57399 6.012C5.64733 5.91867 5.70933 5.828 5.74933 5.76333C5.82799 5.63667 5.85266 5.50667 5.81133 5.406C5.62466 4.95 5.43177 4.49644 5.23266 4.04533C5.19333 3.956 5.07666 3.892 4.97066 3.87933C4.93466 3.87489 4.89866 3.87133 4.86266 3.86867C4.77315 3.86353 4.68339 3.86442 4.59399 3.87133L4.72866 3.86667Z"/>
</svg>
